<svg width="184" height="40" viewBox="0 0 184 40" fill="none" xmlns="http://www.w3.org/2000/svg">
<mask id="mask0_2_4" style="mask-type:alpha" maskUnits="userSpaceOnUse" x="0" y="0" width="184" height="40">
<path fill-rule="evenodd" clip-rule="evenodd" d="M0 0H183.958V39.9385H0V0Z" fill="white"/>
</mask>
<g mask="url(#mask0_2_4)">
<path fill-rule="evenodd" clip-rule="evenodd" d="M27.8164 6.44822C29.594 6.44822 31.0351 5.00481 31.0351 3.22401C31.0351 1.4432 29.594 -6.10352e-05 27.8164 -6.10352e-05C26.0388 -6.10352e-05 24.5978 1.4432 24.5978 3.22401C24.5978 5.00481 26.0388 6.44822 27.8164 6.44822" fill="#03FFA5"/>
<path fill-rule="evenodd" clip-rule="evenodd" d="M42.6737 6.44822C44.4512 6.44822 45.8923 5.00481 45.8923 3.22401C45.8923 1.4432 44.4512 -6.10352e-05 42.6737 -6.10352e-05C40.896 -6.10352e-05 39.455 1.4432 39.455 3.22401C39.455 5.00481 40.896 6.44822 42.6737 6.44822Z" fill="#03FFA5"/>
<path fill-rule="evenodd" clip-rule="evenodd" d="M107.025 6.44822C108.803 6.44822 110.244 5.00481 110.244 3.22401C110.244 1.4432 108.803 -6.10352e-05 107.025 -6.10352e-05C105.247 -6.10352e-05 103.806 1.4432 103.806 3.22401C103.806 5.00481 105.247 6.44822 107.025 6.44822Z" fill="#03FFA5"/>
<path fill-rule="evenodd" clip-rule="evenodd" d="M103.816 39.7815H110.244V8.08316H103.816V39.7815Z" fill="#03FFA5"/>
<path fill-rule="evenodd" clip-rule="evenodd" d="M39.4783 14.0294V29.03C39.4783 29.3306 39.4454 29.6235 39.3852 29.9068C39.0166 31.8609 37.306 33.3398 35.2481 33.3398C33.042 33.3398 31.2349 31.6404 31.0531 29.4775C31.0374 29.3303 31.0288 29.1811 31.0288 29.03V8.08325H24.5979V29.1133C24.5979 34.9807 29.3905 39.7815 35.2481 39.7815C41.1058 39.7815 45.8984 34.9807 45.8984 29.1133V8.08325H39.4783V14.0294Z" fill="#03FFA5"/>
<path fill-rule="evenodd" clip-rule="evenodd" d="M10.6757 8.08325V14.0294H14.8805V29.03C14.8805 29.3306 14.8476 29.6235 14.7873 29.9068C14.4188 31.8609 12.7082 33.3398 10.6503 33.3398C8.44415 33.3398 6.63709 31.6404 6.4553 29.4775C6.43963 29.3303 6.43081 29.1811 6.43081 29.03V28.8948H-6.10352e-05V29.1133C-6.10352e-05 34.9807 4.79266 39.7815 10.6503 39.7815C16.5079 39.7815 21.3006 34.9807 21.3006 29.1133V8.08325H10.6757Z" fill="#03FFA5"/>
<path fill-rule="evenodd" clip-rule="evenodd" d="M63.5109 30.6406V30.6375C59.0862 30.6039 55.5095 27.0019 55.5095 22.562C55.5095 18.101 59.1195 14.4848 63.5729 14.4848C68.0055 14.4848 71.6013 18.0678 71.6349 22.4999H77.9617C77.9281 14.5675 71.4997 8.14743 63.5729 8.14743C55.6253 8.14743 49.1826 14.601 49.1826 22.562C49.1826 30.502 55.592 36.9413 63.5109 36.9749V36.978C65.9259 36.9964 68.0866 38.0791 69.5527 39.7796H76.8455C74.7509 34.4462 69.5732 30.6664 63.5109 30.6406Z" fill="#03FFA5"/>
<path fill-rule="evenodd" clip-rule="evenodd" d="M86.2113 10.8009V10.7978C83.8375 10.7797 81.7087 9.73372 80.2443 8.08328H72.9122C75.0288 13.3705 80.1822 17.1095 86.2113 17.1352V17.1383C90.636 17.1719 94.2129 20.7739 94.2129 25.2139C94.2129 29.6747 90.6027 33.2909 86.1493 33.2909C81.7166 33.2909 78.1208 29.7081 78.0873 25.276H71.7605C71.7941 33.2082 78.2226 39.6284 86.1493 39.6284C94.0969 39.6284 100.54 33.1748 100.54 25.2139C100.54 17.2737 94.1302 10.8345 86.2113 10.8009" fill="#03FFA5"/>
<path fill-rule="evenodd" clip-rule="evenodd" d="M183.958 21.4185L183.562 20.1996L182.211 20.6425V19.2159H180.937V20.6425L179.587 20.1996L179.191 21.4185L180.541 21.8611L179.694 23.0176L180.727 23.7691L181.562 22.6131L182.397 23.7696L183.429 23.0048L182.607 21.8614L183.958 21.4185Z" fill="#03FFA5"/>
<path fill-rule="evenodd" clip-rule="evenodd" d="M119.308 17.1341H121.283V9.94866H123.724V8.08319H116.867V9.94866H119.308V17.1341Z" fill="black"/>
<path fill-rule="evenodd" clip-rule="evenodd" d="M126.553 13.4599H130.124V17.1341H132.099V8.08313H130.124V11.632H126.553V8.08313H124.578V17.1341H126.553V13.4599Z" fill="black"/>
<path fill-rule="evenodd" clip-rule="evenodd" d="M140.374 15.3061H135.804V13.4599H140.186V11.632H135.804V9.91101H140.374V8.0831H133.829V17.1342H140.374V15.3061Z" fill="black"/>
<path fill-rule="evenodd" clip-rule="evenodd" d="M122.345 22.7504C122.163 22.9013 121.899 22.9777 121.56 22.9777H119.668V21.1941H121.56C121.914 21.1941 122.181 21.278 122.354 21.4434C122.528 21.6103 122.613 21.8204 122.613 22.0859C122.613 22.3831 122.525 22.6005 122.345 22.7504V22.7504ZM122.478 25.0354C122.653 25.2064 122.738 25.4312 122.738 25.7227C122.738 26.3564 122.393 26.6645 121.685 26.6645H119.668V24.7805H121.685C122.039 24.7805 122.306 24.8663 122.478 25.0354V25.0354ZM117.743 19.4039V28.4547H121.735C122.692 28.4547 123.437 28.2229 123.95 27.765C124.464 27.3057 124.725 26.6648 124.725 25.8605C124.725 25.3791 124.596 24.9553 124.342 24.6011C124.119 24.2905 123.824 24.0504 123.464 23.8859C123.791 23.7088 124.057 23.4655 124.256 23.1609C124.485 22.8115 124.6 22.395 124.6 21.923C124.6 21.1861 124.342 20.575 123.832 20.1068C123.323 19.6404 122.563 19.4039 121.572 19.4039H117.743Z" fill="black"/>
<path fill-rule="evenodd" clip-rule="evenodd" d="M126.043 19.4039V24.7193C126.043 25.9809 126.413 26.9611 127.143 27.6327C127.872 28.3031 128.794 28.643 129.885 28.643C130.975 28.643 131.897 28.3031 132.626 27.6327C133.356 26.961 133.726 25.9808 133.726 24.7193V19.4039H131.751V24.7695C131.751 25.4004 131.595 25.9032 131.287 26.264C130.982 26.6214 130.51 26.8025 129.885 26.8025C129.259 26.8025 128.787 26.6214 128.482 26.264C128.174 25.9035 128.018 25.4007 128.018 24.7695V19.4039H126.043Z" fill="black"/>
<path fill-rule="evenodd" clip-rule="evenodd" d="M138.435 28.6303C139.499 28.6303 140.371 28.3699 141.028 27.8561C141.69 27.3379 142.026 26.6581 142.026 25.8355C142.026 25.34 141.936 24.907 141.758 24.5484C141.579 24.1883 141.341 23.9095 141.05 23.7197C140.764 23.5332 140.44 23.3886 140.087 23.2899L138.126 22.7418C137.855 22.6662 137.631 22.557 137.46 22.4173C137.298 22.284 137.219 22.1144 137.219 21.899C137.219 21.6363 137.336 21.4259 137.576 21.2555C137.821 21.0817 138.152 20.9935 138.56 20.9935C139.006 20.9935 139.362 21.1115 139.618 21.3442C139.877 21.5793 140.01 21.8804 140.026 22.2646L140.029 22.3353H141.966L141.964 22.2593C141.938 21.3992 141.621 20.669 141.021 20.0892C140.421 19.5097 139.601 19.2159 138.585 19.2159C137.578 19.2159 136.765 19.488 136.17 20.0247C135.572 20.5634 135.269 21.2401 135.269 22.0358C135.269 22.5139 135.36 22.9324 135.54 23.2799C135.721 23.6287 135.959 23.8998 136.248 24.0855C136.532 24.2684 136.852 24.4104 137.199 24.5072L139.133 25.048C139.402 25.1233 139.623 25.234 139.789 25.3768C139.949 25.5138 140.026 25.6841 140.026 25.8977C140.026 26.2001 139.902 26.4282 139.646 26.595C139.385 26.766 139.011 26.8526 138.535 26.8526C138.013 26.8526 137.609 26.728 137.332 26.4825C137.056 26.2382 136.904 25.926 136.881 25.5549L136.876 25.4858H134.928L134.931 25.5627C134.948 25.9538 135.023 26.3285 135.155 26.6766C135.287 27.0263 135.487 27.3546 135.751 27.6523C136.016 27.9529 136.384 28.1937 136.844 28.3685C137.301 28.5423 137.836 28.6303 138.435 28.6303" fill="black"/>
<path fill-rule="evenodd" clip-rule="evenodd" d="M143.381 28.4547H145.356V19.4039H143.381V28.4547Z" fill="black"/>
<path fill-rule="evenodd" clip-rule="evenodd" d="M154.733 19.4039H152.808V25.1377L149.024 19.4039H147.086V28.4547H149.011V22.745L152.779 28.4547H154.733V19.4039Z" fill="black"/>
<path fill-rule="evenodd" clip-rule="evenodd" d="M163.008 26.6269H158.438V24.7807H162.82V22.9528H158.438V21.2318H163.008V19.4039H156.463V28.4549H163.008V26.6269Z" fill="black"/>
<path fill-rule="evenodd" clip-rule="evenodd" d="M170.043 23.7196C169.757 23.5332 169.433 23.3887 169.08 23.2898L167.119 22.7417C166.848 22.6662 166.624 22.5571 166.454 22.4172C166.291 22.2839 166.212 22.1143 166.212 21.899C166.212 21.6365 166.329 21.4259 166.569 21.2554C166.814 21.0816 167.145 20.9935 167.553 20.9935C167.999 20.9935 168.356 21.1116 168.612 21.3443C168.87 21.5793 169.003 21.8804 169.02 22.2646L169.022 22.3352H170.959L170.957 22.2594C170.931 21.3991 170.614 20.669 170.014 20.0892C169.414 19.5097 168.595 19.2159 167.578 19.2159C166.571 19.2159 165.758 19.4881 165.163 20.0248C164.565 20.5634 164.262 21.2402 164.262 22.0358C164.262 22.5138 164.354 22.9324 164.533 23.2799C164.714 23.6286 164.952 23.8997 165.241 24.0855C165.526 24.2684 165.846 24.4104 166.193 24.5073L168.126 25.0481C168.395 25.1233 168.616 25.2339 168.782 25.3768C168.942 25.5137 169.02 25.6842 169.02 25.8977C169.02 26.2 168.895 26.4281 168.64 26.5951C168.378 26.7659 168.004 26.8526 167.528 26.8526C167.007 26.8526 166.602 26.728 166.325 26.4825C166.05 26.2382 165.898 25.9261 165.874 25.5548L165.87 25.4858H163.921L163.924 25.5627C163.941 25.9538 164.017 26.3284 164.148 26.6765C164.28 27.0262 164.48 27.3545 164.744 27.6524C165.009 27.9528 165.377 28.1936 165.837 28.3684C166.294 28.5423 166.83 28.6303 167.428 28.6303C168.492 28.6303 169.364 28.3698 170.021 27.8561C170.684 27.3379 171.02 26.658 171.02 25.8354C171.02 25.3401 170.929 24.9069 170.751 24.5483C170.572 24.1882 170.334 23.9094 170.043 23.7196" fill="black"/>
<path fill-rule="evenodd" clip-rule="evenodd" d="M177.68 23.7196C177.394 23.5332 177.07 23.3887 176.717 23.2898L174.756 22.7417C174.484 22.6662 174.26 22.5571 174.09 22.4172C173.928 22.2839 173.849 22.1143 173.849 21.899C173.849 21.6365 173.966 21.4259 174.206 21.2554C174.451 21.0816 174.782 20.9935 175.19 20.9935C175.636 20.9935 175.992 21.1116 176.248 21.3443C176.506 21.5793 176.64 21.8804 176.656 22.2646L176.659 22.3352H178.596L178.593 22.2594C178.568 21.3993 178.251 20.6691 177.651 20.0892C177.051 19.5097 176.231 19.2159 175.215 19.2159C174.207 19.2159 173.395 19.4881 172.799 20.0248C172.202 20.5634 171.899 21.2402 171.899 22.0358C171.899 22.5138 171.99 22.9324 172.17 23.2799C172.35 23.6286 172.589 23.8997 172.878 24.0855C173.162 24.2684 173.482 24.4104 173.829 24.5073L175.762 25.0481C176.032 25.1233 176.252 25.2339 176.419 25.3768C176.578 25.5137 176.656 25.6842 176.656 25.8977C176.656 26.2 176.532 26.4281 176.276 26.5951C176.015 26.7659 175.641 26.8526 175.165 26.8526C174.643 26.8526 174.238 26.728 173.962 26.4825C173.686 26.2382 173.534 25.9261 173.511 25.5548L173.506 25.4858H171.557L171.561 25.5627C171.578 25.9538 171.653 26.3284 171.785 26.6765C171.916 27.0262 172.117 27.3545 172.38 27.6524C172.646 27.9528 173.013 28.1938 173.474 28.3684C173.931 28.5423 174.466 28.6303 175.064 28.6303C176.128 28.6303 177.001 28.3698 177.657 27.8561C178.32 27.3379 178.656 26.658 178.656 25.8354C178.656 25.3401 178.566 24.9069 178.388 24.5483C178.209 24.1882 177.971 23.9094 177.68 23.7196" fill="black"/>
<path fill-rule="evenodd" clip-rule="evenodd" d="M122.275 36.4555H119.994L121.136 33.2342L122.275 36.4555ZM120.005 30.7247L116.748 39.7756H118.817L119.36 38.2457H122.907L123.448 39.7756H125.424L122.175 30.7247H120.005Z" fill="black"/>
<path fill-rule="evenodd" clip-rule="evenodd" d="M134.711 34.6999H130.75V36.4901H132.601C132.441 36.9625 132.16 37.3431 131.764 37.6226C131.341 37.9215 130.826 38.073 130.235 38.073C129.459 38.073 128.836 37.8134 128.381 37.3015C127.924 36.7872 127.693 36.0927 127.693 35.2375C127.693 34.3743 127.922 33.6823 128.375 33.1803C128.825 32.6806 129.451 32.4271 130.235 32.4271C130.793 32.4271 131.285 32.5665 131.697 32.8412C132.105 33.1139 132.377 33.492 132.505 33.9653L132.52 34.0197H134.632L134.614 33.9308C134.402 32.9231 133.89 32.0964 133.091 31.4738C132.293 30.852 131.332 30.5366 130.235 30.5366C128.919 30.5366 127.809 30.9763 126.935 31.8433C126.061 32.7107 125.617 33.8526 125.617 35.2375C125.617 36.6309 126.052 37.7708 126.91 38.6255C127.767 39.4801 128.886 39.9135 130.235 39.9135C131.51 39.9135 132.589 39.4779 133.442 38.6189C134.295 37.7601 134.728 36.6225 134.728 35.2375C134.728 35.0549 134.724 34.8972 134.715 34.7689L134.711 34.6999Z" fill="black"/>
<path fill-rule="evenodd" clip-rule="evenodd" d="M136.045 39.7756H142.59V37.9476H138.02V36.1014H142.402V34.2736H138.02V32.5525H142.59V30.7247H136.045V39.7756Z" fill="black"/>
<path fill-rule="evenodd" clip-rule="evenodd" d="M149.728 36.4585L145.945 30.7247H144.007V39.7756H145.932V34.0658L149.7 39.7756H151.653V30.7247H149.728V36.4585Z" fill="black"/>
<path fill-rule="evenodd" clip-rule="evenodd" d="M157.513 32.4272C158.095 32.4272 158.595 32.5763 158.997 32.8707C159.398 33.1639 159.667 33.5822 159.796 34.1138L159.809 34.1703H161.906L161.893 34.085C161.723 33.0009 161.232 32.1289 160.432 31.493C159.634 30.8584 158.652 30.5366 157.513 30.5366C156.205 30.5366 155.11 30.9742 154.256 31.8374C153.403 32.7005 152.971 33.8444 152.971 35.2376C152.971 36.6308 153.403 37.7748 154.256 38.6377C155.109 39.5009 156.205 39.9385 157.513 39.9385C158.652 39.9385 159.634 39.6167 160.432 38.9821C161.232 38.3463 161.724 37.4742 161.893 36.3901L161.906 36.305H159.809L159.796 36.3614C159.667 36.8932 159.398 37.3115 158.997 37.6045C158.595 37.8988 158.096 38.0481 157.513 38.0481C156.738 38.0481 156.127 37.7951 155.697 37.2961C155.265 36.7942 155.046 36.1016 155.046 35.2376C155.046 34.3739 155.265 33.6813 155.698 33.1791C156.127 32.6802 156.738 32.4272 157.513 32.4272" fill="black"/>
<path fill-rule="evenodd" clip-rule="evenodd" d="M165.839 34.566L163.805 30.7247H161.518L164.851 36.6118V39.7756H166.826V36.6118L170.159 30.7247H167.872L165.839 34.566Z" fill="black"/>
</g>
</svg>
